<svg xmlns="http://www.w3.org/2000/svg" viewBox="0 0 1600 1200" preserveAspectRatio="xMidYMid slice">
  <defs>
    <filter id="paper"><feTurbulence baseFrequency=".016 .065" numOctaves="4" seed="47"/><feColorMatrix values="1 0 0 0 .66 0 1 0 0 .62 0 0 1 0 .48 0 0 0 .13 0"/></filter>
    <radialGradient id="green"><stop stop-color="#496958" stop-opacity=".38"/><stop offset="1" stop-color="#496958" stop-opacity="0"/></radialGradient>
    <pattern id="shield" width="150" height="190" patternUnits="userSpaceOnUse"><path d="M75 12c38 20 59 53 55 95-5 39-25 64-55 75-30-11-50-36-55-75-4-42 17-75 55-95Z" fill="none" stroke="#a1642e" stroke-opacity=".12" stroke-width="3"/><path d="M75 42c-28 15-28 52 0 57 28 5 31 40 4 52" fill="none" stroke="#172b27" stroke-opacity=".12" stroke-width="4"/></pattern>
  </defs>
  <rect width="1600" height="1200" fill="#eee8d7"/>
  <rect width="1600" height="1200" filter="url(#paper)" opacity=".6"/>
  <ellipse cx="330" cy="1090" rx="680" ry="510" fill="url(#green)"/>
  <ellipse cx="1420" cy="90" rx="570" ry="420" fill="url(#green)" opacity=".75"/>
  <rect width="1600" height="1200" fill="url(#shield)" opacity=".8"/>
  <g fill="none" stroke="#29453d" opacity=".2" stroke-width="7">
    <path d="M85 140c140-88 278 60 180 165-72 78-182-2-123-76 43-54 115-11 89 36"/>
    <path d="M1515 1060c-140 88-278-60-180-165 72-78 182 2 123 76-43 54-115 11-89-36"/>
  </g>
</svg>
